<svg viewBox="0 0 21 15">
  <path 
  fill='var(--svg-clr, #fff)'
  d="M2.59607 6.47639C2.32491 6.1879 1.95086 6.01817 1.55527 6.0041C1.15967 5.99003 0.774522 6.13275 0.483564 6.40123C0.192605 6.66972 0.0193695 7.04226 0.00152785 7.43783C-0.0163138 7.83341 0.122681 8.22004 0.388288 8.51364L5.81311 14.4015C6.61963 15.1918 7.82114 15.1918 8.56758 14.4466L9.11426 13.9073C11.0885 11.965 13.0605 10.0204 15.0302 8.07344L15.0903 8.01334C16.9311 6.19854 18.7625 4.3741 20.5842 2.5401C20.8565 2.25494 21.0057 1.87414 20.9998 1.47985C20.9939 1.08556 20.8333 0.70941 20.5526 0.432556C20.2719 0.155701 19.8936 0.000341884 19.4994 5.63586e-07C19.1052 -0.000340757 18.7267 0.154363 18.4455 0.430732C16.6322 2.25515 14.8099 4.07057 12.9786 5.87693L12.9186 5.93703C11.0311 7.80345 9.1412 9.66743 7.24892 11.529L2.59607 6.47639Z" 
  />
</svg>